<svg xmlns="http://www.w3.org/2000/svg" viewBox="0 0 1600 900" fill="none">
  <defs><linearGradient id="g11" x1="0.2" y1="0" x2="1" y2="1"><stop offset="0%" stop-color="#1A0F0A"/><stop offset="50%" stop-color="#916045"/><stop offset="100%" stop-color="#F2D49E"/></linearGradient></defs>
  <rect width="1600" height="900" fill="url(#g11)"/>
  <circle cx="1010" cy="160" r="190" fill="#FCE9C6" fill-opacity=".29"/>
  <path d="M0 560C242 504 434 480 624 504C846 534 1068 680 1228 668C1318 658 1510 606 1600 550V900H0V560Z" fill="#2C1810"/>
  <path d="M0 662C284 596 512 616 744 676C962 736 1194 786 1600 634V900H0V662Z" fill="#1A0F0A"/>
  <rect x="682" y="260" width="272" height="330" rx="18" fill="#F5EFE6" fill-opacity=".08" stroke="#E8D5B0" stroke-opacity=".36"/>
  <rect x="726" y="330" width="48" height="64" rx="10" fill="#E8D5B0" fill-opacity=".82"/><rect x="796" y="330" width="48" height="64" rx="10" fill="#E8D5B0" fill-opacity=".64"/><rect x="866" y="330" width="48" height="64" rx="10" fill="#E8D5B0" fill-opacity=".82"/>
  <rect x="726" y="420" width="48" height="64" rx="10" fill="#E8D5B0" fill-opacity=".64"/><rect x="796" y="420" width="48" height="64" rx="10" fill="#E8D5B0" fill-opacity=".72"/><rect x="866" y="420" width="48" height="64" rx="10" fill="#E8D5B0" fill-opacity=".64"/>
</svg>
