<svg xmlns="http://www.w3.org/2000/svg" viewBox="0 0 1600 900" fill="none">
  <defs><linearGradient id="g10" x1="0.18" y1="0" x2="1" y2="1"><stop offset="0%" stop-color="#1A0F0A"/><stop offset="50%" stop-color="#8A5C42"/><stop offset="100%" stop-color="#EED099"/></linearGradient></defs>
  <rect width="1600" height="900" fill="url(#g10)"/>
  <circle cx="1018" cy="166" r="188" fill="#FCE9C6" fill-opacity=".28"/>
  <path d="M0 564C234 508 424 482 614 506C838 536 1060 682 1222 670C1322 660 1508 608 1600 552V900H0V564Z" fill="#2C1810"/>
  <path d="M0 666C276 598 504 616 736 678C952 738 1186 788 1600 638V900H0V666Z" fill="#1A0F0A"/>
  <rect x="680" y="262" width="272" height="328" rx="18" fill="#F5EFE6" fill-opacity=".08" stroke="#E8D5B0" stroke-opacity=".35"/>
  <rect x="724" y="330" width="48" height="64" rx="10" fill="#E8D5B0" fill-opacity=".8"/><rect x="794" y="330" width="48" height="64" rx="10" fill="#E8D5B0" fill-opacity=".64"/><rect x="864" y="330" width="48" height="64" rx="10" fill="#E8D5B0" fill-opacity=".8"/>
  <rect x="724" y="420" width="48" height="64" rx="10" fill="#E8D5B0" fill-opacity=".64"/><rect x="794" y="420" width="48" height="64" rx="10" fill="#E8D5B0" fill-opacity=".74"/><rect x="864" y="420" width="48" height="64" rx="10" fill="#E8D5B0" fill-opacity=".64"/>
</svg>
