<svg xmlns="http://www.w3.org/2000/svg" viewBox="0 0 1600 900" fill="none">
  <defs><linearGradient id="g4" x1="0.06" y1="0" x2="1" y2="1"><stop offset="0%" stop-color="#1A0F0A"/><stop offset="53%" stop-color="#6A4734"/><stop offset="100%" stop-color="#D4B77D"/></linearGradient></defs>
  <rect width="1600" height="900" fill="url(#g4)"/>
  <circle cx="1066" cy="202" r="176" fill="#FCE9C6" fill-opacity=".24"/>
  <path d="M0 588C188 532 374 494 564 518C792 548 1008 694 1198 682C1344 672 1490 620 1600 564V900H0V588Z" fill="#2C1810"/>
  <path d="M0 690C228 610 456 622 688 688C902 748 1144 804 1600 662V900H0V690Z" fill="#1A0F0A"/>
  <rect x="668" y="274" width="272" height="316" rx="18" fill="#F5EFE6" fill-opacity=".08" stroke="#E8D5B0" stroke-opacity=".31"/>
  <rect x="712" y="330" width="48" height="64" rx="10" fill="#E8D5B0" fill-opacity=".74"/><rect x="782" y="330" width="48" height="64" rx="10" fill="#E8D5B0" fill-opacity=".58"/><rect x="852" y="330" width="48" height="64" rx="10" fill="#E8D5B0" fill-opacity=".74"/>
  <rect x="712" y="420" width="48" height="64" rx="10" fill="#E8D5B0" fill-opacity=".58"/><rect x="782" y="420" width="48" height="64" rx="10" fill="#E8D5B0" fill-opacity=".8"/><rect x="852" y="420" width="48" height="64" rx="10" fill="#E8D5B0" fill-opacity=".58"/>
</svg>
