<svg xmlns="http://www.w3.org/2000/svg" viewBox="0 0 1600 900" fill="none">
  <defs><linearGradient id="g6" x1="0.1" y1="0" x2="1" y2="1"><stop offset="0%" stop-color="#1A0F0A"/><stop offset="52%" stop-color="#744D38"/><stop offset="100%" stop-color="#DDBF86"/></linearGradient></defs>
  <rect width="1600" height="900" fill="url(#g6)"/>
  <circle cx="1050" cy="190" r="180" fill="#FCE9C6" fill-opacity=".25"/>
  <path d="M0 580C204 524 390 490 580 514C806 544 1024 690 1204 678C1338 668 1494 616 1600 560V900H0V580Z" fill="#2C1810"/>
  <path d="M0 682C244 606 472 620 704 684C918 744 1160 800 1600 654V900H0V682Z" fill="#1A0F0A"/>
  <rect x="672" y="270" width="272" height="320" rx="18" fill="#F5EFE6" fill-opacity=".08" stroke="#E8D5B0" stroke-opacity=".32"/>
  <rect x="716" y="330" width="48" height="64" rx="10" fill="#E8D5B0" fill-opacity=".76"/><rect x="786" y="330" width="48" height="64" rx="10" fill="#E8D5B0" fill-opacity=".6"/><rect x="856" y="330" width="48" height="64" rx="10" fill="#E8D5B0" fill-opacity=".76"/>
  <rect x="716" y="420" width="48" height="64" rx="10" fill="#E8D5B0" fill-opacity=".6"/><rect x="786" y="420" width="48" height="64" rx="10" fill="#E8D5B0" fill-opacity=".78"/><rect x="856" y="420" width="48" height="64" rx="10" fill="#E8D5B0" fill-opacity=".6"/>
</svg>
