<svg xmlns="http://www.w3.org/2000/svg" viewBox="0 0 1600 900" fill="none">
  <defs><linearGradient id="g9" x1="0.16" y1="0" x2="1" y2="1"><stop offset="0%" stop-color="#1A0F0A"/><stop offset="51%" stop-color="#84583F"/><stop offset="100%" stop-color="#EACB93"/></linearGradient></defs>
  <rect width="1600" height="900" fill="url(#g9)"/>
  <circle cx="1026" cy="172" r="186" fill="#FCE9C6" fill-opacity=".27"/>
  <path d="M0 568C226 512 416 484 606 508C830 538 1050 684 1218 672C1326 662 1504 610 1600 554V900H0V568Z" fill="#2C1810"/>
  <path d="M0 670C268 600 496 618 728 680C944 740 1180 792 1600 642V900H0V670Z" fill="#1A0F0A"/>
  <rect x="678" y="264" width="272" height="326" rx="18" fill="#F5EFE6" fill-opacity=".08" stroke="#E8D5B0" stroke-opacity=".35"/>
  <rect x="722" y="330" width="48" height="64" rx="10" fill="#E8D5B0" fill-opacity=".8"/><rect x="792" y="330" width="48" height="64" rx="10" fill="#E8D5B0" fill-opacity=".62"/><rect x="862" y="330" width="48" height="64" rx="10" fill="#E8D5B0" fill-opacity=".8"/>
  <rect x="722" y="420" width="48" height="64" rx="10" fill="#E8D5B0" fill-opacity=".62"/><rect x="792" y="420" width="48" height="64" rx="10" fill="#E8D5B0" fill-opacity=".74"/><rect x="862" y="420" width="48" height="64" rx="10" fill="#E8D5B0" fill-opacity=".62"/>
</svg>
