<svg xmlns="http://www.w3.org/2000/svg" viewBox="0 0 1600 900" fill="none">
  <defs><linearGradient id="g12" x1="0.22" y1="0" x2="1" y2="1"><stop offset="0%" stop-color="#1A0F0A"/><stop offset="49%" stop-color="#976549"/><stop offset="100%" stop-color="#F6D8A4"/></linearGradient></defs>
  <rect width="1600" height="900" fill="url(#g12)"/>
  <circle cx="1002" cy="154" r="192" fill="#FCE9C6" fill-opacity=".3"/>
  <path d="M0 556C250 500 442 478 632 502C854 532 1076 678 1232 666C1314 656 1514 604 1600 548V900H0V556Z" fill="#2C1810"/>
  <path d="M0 658C292 594 520 614 752 674C970 734 1200 782 1600 630V900H0V658Z" fill="#1A0F0A"/>
  <rect x="684" y="258" width="272" height="332" rx="18" fill="#F5EFE6" fill-opacity=".08" stroke="#E8D5B0" stroke-opacity=".37"/>
  <rect x="728" y="330" width="48" height="64" rx="10" fill="#E8D5B0" fill-opacity=".82"/><rect x="798" y="330" width="48" height="64" rx="10" fill="#E8D5B0" fill-opacity=".66"/><rect x="868" y="330" width="48" height="64" rx="10" fill="#E8D5B0" fill-opacity=".82"/>
  <rect x="728" y="420" width="48" height="64" rx="10" fill="#E8D5B0" fill-opacity=".66"/><rect x="798" y="420" width="48" height="64" rx="10" fill="#E8D5B0" fill-opacity=".72"/><rect x="868" y="420" width="48" height="64" rx="10" fill="#E8D5B0" fill-opacity=".66"/>
</svg>
