<svg xmlns="http://www.w3.org/2000/svg" viewBox="0 0 1600 900" fill="none">
  <defs>
    <linearGradient id="bg" x1="0" y1="0" x2="1" y2="1">
      <stop offset="0%" stop-color="#1A0F0A"/>
      <stop offset="55%" stop-color="#5C3D2E"/>
      <stop offset="100%" stop-color="#C9A96E"/>
    </linearGradient>
    <radialGradient id="sun" cx="0" cy="0" r="1" gradientUnits="userSpaceOnUse" gradientTransform="translate(1080 190) rotate(90) scale(220 220)">
      <stop offset="0%" stop-color="#FCE9C6"/>
      <stop offset="100%" stop-color="#D4793A" stop-opacity="0"/>
    </radialGradient>
  </defs>
  <rect width="1600" height="900" fill="url(#bg)"/>
  <rect width="1600" height="900" fill="url(#sun)"/>
  <path d="M0 610C160 560 330 510 520 530C760 556 980 700 1190 690C1360 682 1480 628 1600 570V900H0V610Z" fill="#2C1810"/>
  <path d="M0 700C210 620 420 620 650 686C860 746 1120 816 1600 676V900H0V700Z" fill="#1A0F0A"/>
  <rect x="660" y="278" width="272" height="312" rx="18" fill="#F5EFE6" fill-opacity=".08" stroke="#E8D5B0" stroke-opacity=".32"/>
  <rect x="702" y="330" width="48" height="66" rx="10" fill="#E8D5B0" fill-opacity=".72"/>
  <rect x="772" y="330" width="48" height="66" rx="10" fill="#E8D5B0" fill-opacity=".52"/>
  <rect x="842" y="330" width="48" height="66" rx="10" fill="#E8D5B0" fill-opacity=".72"/>
  <rect x="702" y="420" width="48" height="66" rx="10" fill="#E8D5B0" fill-opacity=".52"/>
  <rect x="772" y="420" width="48" height="66" rx="10" fill="#E8D5B0" fill-opacity=".82"/>
  <rect x="842" y="420" width="48" height="66" rx="10" fill="#E8D5B0" fill-opacity=".52"/>
</svg>
